<svg id="Capa_1" enable-background="new 0 0 512 512" height="512" viewBox="0 0 512 512" width="512" xmlns="http://www.w3.org/2000/svg"><g><g><path d="m512 286.001c0 7.35-.33 14.82-.97 22.2-.722 8.291-8.059 14.369-16.25 13.64-8.25-.72-14.36-8-13.64-16.25.57-6.51.86-13.1.86-19.59 0-124.07-101.38-225-226-225-139.59 0-226 116.79-226 225 0 6.49.29 13.08.86 19.59.72 8.25-5.39 15.53-13.64 16.25s-15.53-5.39-16.25-13.64c-.64-7.38-.97-14.85-.97-22.2 0-134.08 108.62-255 256-255 147.53 0 256 121.24 256 255z" fill="#ff641a"/></g><path d="m512 286.001c0 7.35-.33 14.82-.97 22.2-.722 8.291-8.059 14.369-16.25 13.64-8.25-.72-14.36-8-13.64-16.25.57-6.51.86-13.1.86-19.59 0-124.07-101.38-225-226-225v-30c147.53 0 256 121.24 256 255z" fill="#dd3400"/><g><path d="m343.06 211.291-51.76 10.35c2.83-11.33 21.04-84.24 23.65-95.14 4.73-19.74-19.98-26.88-27.68-11.58-1.94 3.7-14.33 22.58-31.27 47.98-25.52 38.26-61.38 91.34-87.41 129.67-7.53 11.1 2.23 25.76 15.35 23.14l52.42-10.49-25 112.53c-3.67 16.49 18.61 25.43 27.41 11.11l17.23-28 102.77-167c6.86-11.14-2.9-25.13-15.71-22.57z" fill="#ffdf8e"/></g><path d="m358.77 233.861-102.77 167v-237.96c16.94-25.4 29.33-44.28 31.27-47.98 7.7-15.3 32.41-8.16 27.68 11.58-2.61 10.9-20.82 83.81-23.65 95.14l51.76-10.35c12.81-2.56 22.57 11.43 15.71 22.57z" fill="#ffb64c"/><g><path d="m61.986 243.498c-40.727 7.181-68.018 46.157-60.837 86.884l15.629 88.632c7.19 40.778 46.207 68.011 86.884 60.837z" fill="#ff641a"/><path d="m169.708 422.512-26.047-147.721c-4.32-24.496-27.642-40.823-52.13-36.501l-29.544 5.209 41.676 236.354h.001l29.544-5.209c24.435-4.311 40.809-27.696 36.5-52.132z" fill="#575f64"/></g><g><path d="m420.47 238.289c-24.496-4.325-47.813 12.015-52.131 36.501l-26.047 147.721c-4.309 24.436 12.066 47.821 36.502 52.13l29.544 5.209 41.676-236.354z" fill="#32393f"/><path d="m450.014 243.498-41.676 236.354c40.635 7.168 79.688-20.025 86.884-60.836l15.629-88.633c7.181-40.728-20.111-79.704-60.837-86.885z" fill="#dd3400"/></g></g></svg>