<svg xmlns="http://www.w3.org/2000/svg" xmlns:xlink="http://www.w3.org/1999/xlink" version="1.1" x="0px" y="0px" viewBox="0 0 100 125" style="enable-background:new 0 0 100 100;" xml:space="preserve"><path d="M50,30c-11,0-20,9-20,20s9,20,20,20s20-9,20-20S61,30,50,30z M63.3,62.1c-2.2-3.7-5.9-6.3-10.1-7.2c3.1-1.3,5.2-4.3,5.2-7.9  c0-4.7-3.8-8.5-8.5-8.5s-8.5,3.8-8.5,8.5c0,3.5,2.2,6.6,5.2,7.8c-4.2,0.9-7.8,3.5-10,7.2C33.8,58.9,32,54.6,32,50  c0-9.9,8.1-18,18-18s18,8.1,18,18C68,54.6,66.2,58.9,63.3,62.1z M80,43h-3.9c-0.6-2.3-1.5-4.5-2.7-6.5l2.8-2.8c0.4-0.4,0.4-1,0-1.4  l-8.5-8.5c-0.4-0.4-1-0.4-1.4,0l-2.8,2.8c-2-1.2-4.2-2.1-6.5-2.7V20c0-0.6-0.4-1-1-1H44c-0.6,0-1,0.4-1,1v3.9  c-2.3,0.6-4.5,1.5-6.5,2.7l-2.8-2.8c-0.4-0.4-1-0.4-1.4,0l-8.5,8.5c-0.4,0.4-0.4,1,0,1.4l2.8,2.8c-1.2,2-2.1,4.2-2.7,6.5H20  c-0.6,0-1,0.4-1,1v12c0,0.6,0.4,1,1,1h3.9c0.6,2.3,1.5,4.5,2.7,6.5l-2.8,2.8c-0.4,0.4-0.4,1,0,1.4l8.5,8.5c0.4,0.4,1,0.4,1.4,0  l2.8-2.8c2,1.2,4.2,2.1,6.5,2.7V80c0,0.6,0.4,1,1,1h12c0.6,0,1-0.4,1-1v-3.9c2.3-0.6,4.5-1.5,6.5-2.7l2.8,2.8c0.4,0.4,1,0.4,1.4,0  l8.5-8.5c0.4-0.4,0.4-1,0-1.4l-2.8-2.8c1.2-2,2.1-4.2,2.7-6.5H80c0.6,0,1-0.4,1-1V44C81,43.4,80.6,43,80,43z M79,55h-3.7  c-0.5,0-0.9,0.3-1,0.8c-0.6,2.6-1.6,5.1-3,7.3c-0.2,0.4-0.2,0.9,0.1,1.2L74,67L67,74l-2.6-2.6c-0.3-0.3-0.8-0.4-1.2-0.1  c-2.3,1.4-4.7,2.4-7.3,3c-0.5,0.1-0.8,0.5-0.8,1V79H45v-3.7c0-0.5-0.3-0.9-0.8-1c-2.6-0.6-5.1-1.6-7.3-3c-0.4-0.2-0.9-0.2-1.2,0.1  L33,74L26,67l2.6-2.6c0.3-0.3,0.4-0.8,0.1-1.2c-1.4-2.3-2.4-4.7-3-7.3c-0.1-0.5-0.5-0.8-1-0.8H21V45h3.7c0.5,0,0.9-0.3,1-0.8  c0.6-2.6,1.6-5.1,3-7.3c0.2-0.4,0.2-0.9-0.1-1.2L26,33L33,26l2.6,2.6c0.3,0.3,0.8,0.4,1.2,0.1c2.3-1.4,4.7-2.4,7.3-3  c0.5-0.1,0.8-0.5,0.8-1V21h10v3.7c0,0.5,0.3,0.9,0.8,1c2.6,0.6,5.1,1.6,7.3,3c0.4,0.2,0.9,0.2,1.2-0.1L67,26L74,33l-2.6,2.6  c-0.3,0.3-0.4,0.8-0.1,1.2c1.4,2.3,2.4,4.7,3,7.3c0.1,0.5,0.5,0.8,1,0.8H79V55z"/></svg>