<?xml version="1.0" encoding="iso-8859-1"?>
<!-- Generator: Adobe Illustrator 19.0.0, SVG Export Plug-In . SVG Version: 6.00 Build 0)  -->
<svg version="1.1" id="Capa_1" xmlns="http://www.w3.org/2000/svg" xmlns:xlink="http://www.w3.org/1999/xlink" x="0px" y="0px"
	 viewBox="0 0 512 512" style="enable-background:new 0 0 512 512;" xml:space="preserve">
<g>
	<g>
		<g>
			<path d="M415.827,126.145c-31.237-31.237-70.01-52.189-112.216-61.192c1.525-4.841,2.328-9.907,2.328-15.013
				C305.939,22.402,283.537,0,256,0s-49.939,22.402-49.939,49.939c0,5.105,0.803,10.172,2.328,15.013
				c-42.206,9.003-80.979,29.955-112.216,61.192c-42.691,42.691-66.202,99.452-66.202,159.827c0,28.611,5.277,56.499,15.685,82.889
				c1.52,3.852,5.878,5.744,9.729,4.225c3.854-1.52,5.745-5.875,4.226-9.729c-9.713-24.629-14.639-50.665-14.639-77.385
				c0-116.362,94.667-211.029,211.029-211.029S467.03,169.609,467.03,285.971C467.029,402.333,372.362,497,256,497
				c-37.255,0-73.87-9.837-105.888-28.447c-31.08-18.064-57.225-43.946-75.607-74.848c-2.118-3.559-6.719-4.732-10.28-2.61
				c-3.56,2.117-4.729,6.72-2.611,10.28c19.685,33.088,47.681,60.802,80.961,80.147C176.878,501.461,216.101,512,256,512
				c60.375,0,117.135-23.511,159.827-66.202c42.691-42.691,66.202-99.452,66.202-159.826
				C482.029,225.597,458.518,168.836,415.827,126.145z M288.671,62.28c-10.728-1.544-21.638-2.338-32.671-2.338
				s-21.943,0.794-32.671,2.338c-1.483-3.929-2.268-8.115-2.268-12.34C221.061,30.674,236.734,15,256,15
				s34.939,15.674,34.939,34.939C290.939,54.165,290.154,58.351,288.671,62.28z"/>
			<path d="M302.901,301.372l45.235-84.248c3.616-6.735,2.414-14.893-2.992-20.298c-5.405-5.404-13.563-6.607-20.297-2.99
				l-84.249,45.235c-13.408,7.198-24.3,18.091-31.5,31.499l-45.235,84.248c-3.616,6.735-2.414,14.893,2.992,20.298
				c3.326,3.326,7.693,5.061,12.13,5.061c2.775,0,5.576-0.678,8.167-2.069l84.249-45.236
				C284.809,325.673,295.701,314.78,302.901,301.372z M264.305,319.656l-84.249,45.236c-0.955,0.513-1.828,0.384-2.595-0.383
				c-0.767-0.767-0.895-1.641-0.382-2.596l45.235-84.248c1.697-3.161,3.657-6.143,5.84-8.933l45.084,45.084
				C270.448,316,267.466,317.959,264.305,319.656z M238.762,258.126c2.79-2.183,5.772-4.142,8.933-5.84l84.249-45.235
				c0.382-0.205,0.751-0.308,1.106-0.308c0.531,0,1.029,0.23,1.489,0.69c0.767,0.767,0.895,1.64,0.382,2.595l-45.235,84.248
				c-1.697,3.161-3.656,6.143-5.84,8.933L238.762,258.126z"/>
			<path d="M403.875,285.972c0-13.187-10.728-23.915-23.915-23.915s-23.915,10.729-23.915,23.915
				c0,13.186,10.728,23.915,23.915,23.915S403.875,299.158,403.875,285.972z M371.045,285.972c0-4.916,3.999-8.915,8.915-8.915
				s8.915,3.999,8.915,8.915c0,4.916-3.999,8.915-8.915,8.915S371.045,290.888,371.045,285.972z"/>
			<path d="M108.125,285.972c0,13.186,10.728,23.915,23.915,23.915c13.187,0,23.915-10.728,23.915-23.915
				s-10.728-23.915-23.915-23.915C118.853,262.057,108.125,272.785,108.125,285.972z M140.955,285.972
				c0,4.916-3.999,8.915-8.915,8.915c-4.916,0-8.915-3.999-8.915-8.915s3.999-8.915,8.915-8.915
				C136.956,277.057,140.955,281.056,140.955,285.972z"/>
			<path d="M333.854,136.855c-23.846-12.475-50.768-19.068-77.854-19.068c-92.737,0-168.185,75.447-168.185,168.186
				c0,92.737,75.447,168.185,168.185,168.185s168.185-75.447,168.185-168.185c0-49.702-21.817-96.595-59.856-128.655
				c-3.168-2.671-7.899-2.268-10.568,0.901c-2.669,3.167-2.266,7.898,0.901,10.567c34.65,29.204,54.523,71.917,54.523,117.187
				c0,84.466-68.718,153.185-153.185,153.185s-153.185-68.719-153.185-153.185c0-84.467,68.718-153.186,153.185-153.186
				c24.675,0,49.192,6.003,70.901,17.359c3.67,1.921,8.202,0.501,10.122-3.169C338.943,143.307,337.524,138.774,333.854,136.855z"/>
			<path d="M279.915,162.011c0-13.186-10.728-23.915-23.915-23.915s-23.915,10.729-23.915,23.915
				c0,13.187,10.728,23.915,23.915,23.915C269.187,185.926,279.915,175.197,279.915,162.011z M247.085,162.011
				c0-4.916,3.999-8.915,8.915-8.915s8.915,3.999,8.915,8.915s-3.999,8.915-8.915,8.915S247.085,166.927,247.085,162.011z"/>
			<path d="M232.085,409.932c0,13.187,10.728,23.915,23.915,23.915s23.915-10.729,23.915-23.915
				c0-13.187-10.728-23.915-23.915-23.915S232.085,396.745,232.085,409.932z M264.915,409.932c0,4.916-3.999,8.915-8.915,8.915
				s-8.915-3.999-8.915-8.915s3.999-8.915,8.915-8.915S264.915,405.016,264.915,409.932z"/>
		</g>
	</g>
</g>
<g>
</g>
<g>
</g>
<g>
</g>
<g>
</g>
<g>
</g>
<g>
</g>
<g>
</g>
<g>
</g>
<g>
</g>
<g>
</g>
<g>
</g>
<g>
</g>
<g>
</g>
<g>
</g>
<g>
</g>
</svg>
