<?xml version="1.0" encoding="utf-8"?>
<!-- Generator: Adobe Illustrator 22.0.0, SVG Export Plug-In . SVG Version: 6.00 Build 0)  -->
<svg version="1.1" id="Layer_1" xmlns="http://www.w3.org/2000/svg" xmlns:xlink="http://www.w3.org/1999/xlink" x="0px" y="0px"
	 viewBox="0 0 1366 768" enable-background="new 0 0 1366 768" xml:space="preserve">
<path fill="#03907c"  d="M1188.5-96.5c-268.1,73.8-366.8,134.9-403,180
	c-5.4,6.8-34.6,39.9-75,85c-114.4,127.7-185.7,109.7-211,176c-36.7,96.2,27.9,237.1,82,308c14.4,18.9,53.9,67.7,126,115
	c173.9,114.2,329.4,83.1,333,114c5.6,48.1-364.5,174.8-784,133c-105.7-10.5-159.4-16.9-212-46c-258.8-143.1-351-691.3-137-995
	C128.4-340.1,703.1-431.8,1188.5-96.5z"/>
</svg>
