<svg id="_x31_px" enable-background="new 0 0 24 24" height="512" viewBox="0 0 24 24" width="512" xmlns="http://www.w3.org/2000/svg"><g id="XMLID_1_"><path d="m23.5 16.997c.28 0 .5.23.5.5 0 .28-.22.5-.5.5h-.5v-1z"/><path d="m1 16.997h22v1h-22z"/><path d="m22.5 3.997c.83 0 1.5.68 1.5 1.5v12c0-.27-.22-.5-.5-.5h-.5v-11.5c0-.27-.22-.5-.5-.5h-5c-.28 0-.5-.22-.5-.5 0-.07.01-.13.04-.19.07-.18.25-.31.46-.31z"/><path d="m22.5 19.997c.28 0 .5-.22.5-.5v-1.5h.5c.28 0 .5-.22.5-.5v2c0 .83-.67 1.5-1.5 1.5h-7.92c-.07-.3-.08-.48-.08-.5 0-.28-.23-.5-.5-.5z"/><path d="m14.5 20.497c0 .02.01.2.08.5h-1.02c-.06-.29-.06-.48-.06-.5 0-.27.22-.5.5-.5.27 0 .5.22.5.5z"/><path d="m9.98 19.997h4.02c-.28 0-.5.23-.5.5 0 .02 0 .21.06.5h-3.13c.05-.3.05-.48.05-.5 0-.28-.23-.5-.5-.5z"/><path d="m12.5 1.707v6.79c0 .28-.22.5-.5.5s-.5-.22-.5-.5v-6.79l.5-.5z"/><path d="m12.5.747v.96l-.5-.5-.5.5v-.96c0-.27.22-.5.5-.5s.5.23.5.5z"/><path d="m10.48 20.497c0 .02 0 .2-.05.5h-1.02c.07-.29.07-.47.07-.49 0-.28.22-.5.5-.51.27 0 .5.22.5.5z"/><path d="m12.5.747c0-.27-.22-.5-.5-.5s-.5.23-.5.5v.96l-1.65 1.65c-.19.19-.51.19-.7 0-.05-.05-.09-.11-.11-.17-.08-.18-.04-.39.11-.54l2.5-2.5c.19-.19.51-.19.7 0l2.5 2.5c.2.2.2.51 0 .71-.09.09-.22.14-.35.14s-.26-.05-.35-.14l-1.65-1.65z"/><path d="m10.43 20.997c-.09.46-.3 1.2-.86 2h4.86c-.56-.8-.79-1.54-.87-2h1.02c.12.5.44 1.32 1.27 2.15.15.14.19.36.11.54-.07.19-.26.31-.46.31h-7c-.2 0-.39-.12-.46-.31-.08-.18-.04-.4.11-.54.83-.84 1.14-1.65 1.26-2.15z"/><path d="m8.5 10.997h7c.28 0 .5-.22.5-.5v-2c0-.27.22-.5.5-.5s.5.23.5.5v2c0 .83-.67 1.5-1.5 1.5h-7c-.83 0-1.5-.67-1.5-1.5v-2c0-.27.22-.5.5-.5s.5.23.5.5v2c0 .28.22.5.5.5z"/><path d="m1 16.997v1h-.5c-.28 0-.5-.22-.5-.5 0-.27.22-.5.5-.5z"/><path d="m1.5 4.997c-.28 0-.5.23-.5.5v11.5h-.5c-.28 0-.5.23-.5.5v-12c0-.82.67-1.5 1.5-1.5h5c.28 0 .5.23.5.5 0 .28-.22.5-.5.5z"/><path d="m1 19.497c0 .28.22.5.5.5h8.48c-.28.01-.5.23-.5.51 0 .02 0 .2-.07.49h-7.91c-.83 0-1.5-.67-1.5-1.5v-2c0 .28.22.5.5.5h.5z"/></g></svg>