<svg height="512pt" viewBox="0 0 512 512" width="512pt" xmlns="http://www.w3.org/2000/svg"><path d="m436.769531 74.617188c-48.335937-48.128907-112.511719-74.617188-180.765625-74.617188h-.363281c-34.804687.046875-68.578125 7.011719-100.390625 20.695312-30.675781 13.199219-58.167969 32.027344-81.714844 55.96875-48.441406 49.25-74.546875 114.199219-73.503906 182.878907.628906 41.699219 11.605469 82.980469 31.730469 119.371093.378906.683594.46875 1.449219.25 2.105469l-29.445313 88.179688c-3.78125 11.328125-1.058594 23.78125 7.109375 32.5 6.238281 6.664062 14.859375 10.300781 23.738281 10.300781 2.761719 0 5.546876-.351562 8.289063-1.070312l99.527344-26.144532c.585937-.15625 1.21875-.089844 1.78125.1875 35.382812 17.414063 73.398437 26.242188 112.984375 26.242188 68.328125 0 132.65625-26.742188 181.140625-75.292969 48.375-48.445313 74.960937-112.617187 74.859375-180.691406-.09375-68.261719-26.8125-132.40625-75.226563-180.613281zm-20.859375 340.105468c-42.8125 42.875-99.605468 66.488282-159.910156 66.488282-34.957031 0-68.515625-7.789063-99.742188-23.15625-7.035156-3.464844-15.078124-4.277344-22.648437-2.289063l-99.523437 26.144531c-.980469.257813-1.824219.015625-2.515626-.71875-1.015624-1.085937-.664062-2.140625-.546874-2.488281l29.445312-88.1875c2.867188-8.59375 1.976562-18.113281-2.453125-26.121094-17.75-32.097656-27.429687-68.515625-27.988281-105.308593-.921875-60.585938 22.125-117.902344 64.894531-161.386719 42.855469-43.570313 99.949219-67.613281 160.761719-67.699219h.316406c60.261719 0 116.929688 23.386719 159.601562 65.875 42.730469 42.546875 66.3125 99.15625 66.398438 159.398438.085938 60.054687-23.386719 116.679687-66.089844 159.449218zm0 0"/><path d="m353.402344 171.328125-130.953125 130.957031c-3.632813 3.632813-9.539063 3.628906-13.167969 0l-50.6875-50.6875c-5.855469-5.859375-15.355469-5.859375-21.210938 0-5.859374 5.855469-5.859374 15.355469 0 21.214844l50.6875 50.6875c7.664063 7.664062 17.730469 11.496094 27.796876 11.496094 10.066406 0 20.132812-3.832032 27.792968-11.496094l130.957032-130.960938c5.859374-5.855468 5.859374-15.355468 0-21.214843-5.855469-5.855469-15.355469-5.855469-21.214844.003906zm0 0"/></svg>